# xmcd
#
# Track frame offsets:
#	150
#	15011
#	26904
#	37732
#	49660
#	61824
#	73035
#	85742
#	98116
#	111376
#	121168
#	131164
#	142833
#	156138
#
# Disc length: 2255 seconds
#
# Revision: 2
# Processed by: cddbd v1.5.1PL0 Copyright (c) Steve Scherf et al.
# Submitted via: EasyCDDAExtractor 7.0.5.4
#
DISCID=ac08cd0e
DTITLE=SLIM WHITMAN - SIGNATURE SERIES
DYEAR=2002
DGENRE=Country
TTITLE0=INDIAN LOVE CALL
TTITLE1=SECRET LOVE
TTITLE2=ROSE-MARIE
TTITLE3=KEEP IT A SECRET
TTITLE4=MY HEART IS BROKEN IN THREE
TTITLE5=SINGING HILLS
TTITLE6=NORTH WINDS
TTITLE7=MORE THAN YESTERDAY
TTITLE8=LOVE SONG OF THE WATERFALL
TTITLE9=CATTLE CALL
TTITLE10=THE TWELFTH OF NEVER
TTITLE11=RAINBOWS ARE BACK IN STYLE
TTITLE12=SOMETHING BEAUTIFUL TO REMEMBER
TTITLE13=GUESS WHO
EXTD=
EXTT0=
EXTT1=
EXTT2=
EXTT3=
EXTT4=
EXTT5=
EXTT6=
EXTT7=
EXTT8=
EXTT9=
EXTT10=
EXTT11=
EXTT12=
EXTT13=
PLAYORDER=
